<?xml version="1.0" encoding="utf-8"?>
<!-- Generator: Adobe Illustrator 24.1.1, SVG Export Plug-In . SVG Version: 6.00 Build 0)  -->
<svg version="1.1" id="Layer_1" xmlns="http://www.w3.org/2000/svg" xmlns:xlink="http://www.w3.org/1999/xlink" x="0px" y="0px"
	 viewBox="0 0 1920 1080" style="enable-background:new 0 0 1920 1080;" xml:space="preserve">
<style type="text/css">
	.st0{fill:#F3FCFF;}
	.st1{fill:#74B77A;}
	.st2{fill:#36B23B;}
	.st3{fill:#9E731B;}
	.st4{fill:#2C8924;}
	.st5{fill:#BBF9F6;}
	.st6{fill:#4A994A;}
	.st7{fill:#7D8686;}
	.st8{fill:#FCFCFC;}
	.st9{fill:#04030A;}
	.st10{fill:#F4EB78;}
	.st11{fill:#061900;}
	.st12{fill:#FFB59E;}
	.st13{fill:#C68102;}
	.st14{fill:#FFE6C5;}
	.st15{fill:#080505;}
	.st16{fill:#FEFFFF;}
	.st17{fill:#010001;}
	.st18{fill:#FCA3B5;}
	.st19{fill:#AD2835;}
</style>
<rect id="background" class="st0" width="1920" height="1080"/>
<rect id="fields" y="590" class="st1" width="1920" height="490"/>
<g id="grasses">
	<g id="grass">
		<polygon id="grass1" class="st2" points="122,1080 133,1042 122,982 157,1042 157,1080 		"/>
		<polygon class="st2" points="496,1080 507,1042 496,982 531,1042 531,1080 		"/>
		<polygon class="st2" points="188,1080 203.4,1019.51 188,924 237,1019.51 237,1080 		"/>
		<polygon class="st2" points="414,1080 429.4,1019.51 414,924 463,1019.51 463,1080 		"/>
		<polygon class="st2" points="284,1080 296.57,1031.92 284,956 324,1031.92 324,1080 		"/>
		<polygon class="st2" points="344,1080 356.57,1031.92 344,956 384,1031.92 384,1080 		"/>
	</g>
	<g id="grass_1_">
		<polygon id="grass1_1_" class="st2" points="574,1080 585,1042 574,982 609,1042 609,1080 		"/>
		<polygon class="st2" points="948,1080 959,1042 948,982 983,1042 983,1080 		"/>
		<polygon class="st2" points="640,1080 655.4,1019.51 640,924 689,1019.51 689,1080 		"/>
		<polygon class="st2" points="866,1080 881.4,1019.51 866,924 915,1019.51 915,1080 		"/>
		<polygon class="st2" points="736,1080 748.57,1031.92 736,956 776,1031.92 776,1080 		"/>
		<polygon class="st2" points="796,1080 808.57,1031.92 796,956 836,1031.92 836,1080 		"/>
	</g>
	<g id="grass_3_">
		<polygon id="grass1_3_" class="st2" points="1039,1080 1050,1042 1039,982 1074,1042 1074,1080 		"/>
		<polygon class="st2" points="1413,1080 1424,1042 1413,982 1448,1042 1448,1080 		"/>
		<polygon class="st2" points="1105,1080 1120.4,1019.51 1105,924 1154,1019.51 1154,1080 		"/>
		<polygon class="st2" points="1331,1080 1346.4,1019.51 1331,924 1380,1019.51 1380,1080 		"/>
		<polygon class="st2" points="1201,1080 1213.57,1031.92 1201,956 1241,1031.92 1241,1080 		"/>
		<polygon class="st2" points="1261,1080 1273.57,1031.92 1261,956 1301,1031.92 1301,1080 		"/>
	</g>
	<g id="grass_2_">
		<polygon id="grass1_2_" class="st2" points="1491,1080 1502,1042 1491,982 1526,1042 1526,1080 		"/>
		<polygon class="st2" points="1865,1080 1876,1042 1865,982 1900,1042 1900,1080 		"/>
		<polygon class="st2" points="1557,1080 1572.4,1019.51 1557,924 1606,1019.51 1606,1080 		"/>
		<polygon class="st2" points="1783,1080 1798.4,1019.51 1783,924 1832,1019.51 1832,1080 		"/>
		<polygon class="st2" points="1653,1080 1665.57,1031.92 1653,956 1693,1031.92 1693,1080 		"/>
		<polygon class="st2" points="1713,1080 1725.57,1031.92 1713,956 1753,1031.92 1753,1080 		"/>
	</g>
</g>
<g id="grasses_1_">
	<g id="grass_7_">
		<polygon id="grass1_7_" class="st2" points="12,1080 23,1042 12,982 47,1042 47,1080 		"/>
		<polygon class="st2" points="386,1080 397,1042 386,982 421,1042 421,1080 		"/>
		<polygon class="st2" points="78,1080 93.4,1019.51 78,924 127,1019.51 127,1080 		"/>
		<polygon class="st2" points="304,1080 319.4,1019.51 304,924 353,1019.51 353,1080 		"/>
		<polygon class="st2" points="174,1080 186.57,1031.92 174,956 214,1031.92 214,1080 		"/>
		<polygon class="st2" points="234,1080 246.57,1031.92 234,956 274,1031.92 274,1080 		"/>
	</g>
	<g id="grass_6_">
		<polygon id="grass1_6_" class="st2" points="464,1080 475,1042 464,982 499,1042 499,1080 		"/>
		<polygon class="st2" points="838,1080 849,1042 838,982 873,1042 873,1080 		"/>
		<polygon class="st2" points="530,1080 545.4,1019.51 530,924 579,1019.51 579,1080 		"/>
		<polygon class="st2" points="756,1080 771.4,1019.51 756,924 805,1019.51 805,1080 		"/>
		<polygon class="st2" points="626,1080 638.57,1031.92 626,956 666,1031.92 666,1080 		"/>
		<polygon class="st2" points="686,1080 698.57,1031.92 686,956 726,1031.92 726,1080 		"/>
	</g>
	<g id="grass_5_">
		<polygon id="grass1_5_" class="st2" points="929,1080 940,1042 929,982 964,1042 964,1080 		"/>
		<polygon class="st2" points="1303,1080 1314,1042 1303,982 1338,1042 1338,1080 		"/>
		<polygon class="st2" points="995,1080 1010.4,1019.51 995,924 1044,1019.51 1044,1080 		"/>
		<polygon class="st2" points="1221,1080 1236.4,1019.51 1221,924 1270,1019.51 1270,1080 		"/>
		<polygon class="st2" points="1091,1080 1103.57,1031.92 1091,956 1131,1031.92 1131,1080 		"/>
		<polygon class="st2" points="1151,1080 1163.57,1031.92 1151,956 1191,1031.92 1191,1080 		"/>
	</g>
	<g id="grass_4_">
		<polygon id="grass1_4_" class="st2" points="1381,1080 1392,1042 1381,982 1416,1042 1416,1080 		"/>
		<polygon class="st2" points="1755,1080 1766,1042 1755,982 1790,1042 1790,1080 		"/>
		<polygon class="st2" points="1447,1080 1462.4,1019.51 1447,924 1496,1019.51 1496,1080 		"/>
		<polygon class="st2" points="1673,1080 1688.4,1019.51 1673,924 1722,1019.51 1722,1080 		"/>
		<polygon class="st2" points="1543,1080 1555.57,1031.92 1543,956 1583,1031.92 1583,1080 		"/>
		<polygon class="st2" points="1603,1080 1615.57,1031.92 1603,956 1643,1031.92 1643,1080 		"/>
	</g>
</g>
<g id="trees">
	<g id="tree">
		<rect x="189" y="448" class="st3" width="36" height="152"/>
		<circle class="st4" cx="207" cy="448" r="76"/>
	</g>
	<g id="tree_2_">
		<rect x="733.79" y="480" class="st3" width="28.42" height="120"/>
		<circle class="st4" cx="748" cy="480" r="60"/>
	</g>
	<g id="tree_3_">
		<rect x="930.98" y="526.67" class="st3" width="17.37" height="73.33"/>
		<circle class="st4" cx="939.67" cy="526.67" r="36.67"/>
	</g>
	<g id="tree_1_">
		<rect x="459.61" y="393.5" class="st3" width="48.79" height="206"/>
		<circle class="st4" cx="484" cy="393.5" r="103"/>
	</g>
	<g id="tree_7_">
		<rect x="1071" y="448" class="st3" width="36" height="152"/>
		<circle class="st4" cx="1089" cy="448" r="76"/>
	</g>
	<g id="tree_6_">
		<rect x="1615.79" y="480" class="st3" width="28.42" height="120"/>
		<circle class="st4" cx="1630" cy="480" r="60"/>
	</g>
	<g id="tree_5_">
		<rect x="1812.98" y="526.67" class="st3" width="17.37" height="73.33"/>
		<circle class="st4" cx="1821.67" cy="526.67" r="36.67"/>
	</g>
	<g id="tree_4_">
		<rect x="1341.61" y="393.5" class="st3" width="48.79" height="206"/>
		<circle class="st4" cx="1366" cy="393.5" r="103"/>
	</g>
</g>
<g id="megh_4_">
	<ellipse id="megh" class="st5" cx="329" cy="116" rx="115" ry="37"/>
	<ellipse id="megh_1_" class="st5" cx="734" cy="191.31" rx="142" ry="45.69"/>
	<ellipse id="megh_2_" class="st5" cx="1166" cy="95.57" rx="95" ry="30.57"/>
	<ellipse id="megh_3_" class="st5" cx="1430" cy="214.39" rx="110" ry="35.39"/>
</g>
<g id="roads">
	<rect y="792" class="st6" width="78" height="13"/>
	<rect x="149" y="792" class="st6" width="78" height="13"/>
	<rect x="298" y="792" class="st6" width="78" height="13"/>
	<rect x="447" y="792" class="st6" width="78" height="13"/>
	<rect x="596" y="792" class="st6" width="78" height="13"/>
	<rect x="745" y="792" class="st6" width="78" height="13"/>
	<rect x="894" y="792" class="st6" width="78" height="13"/>
	<rect x="1043" y="792" class="st6" width="78" height="13"/>
	<rect x="1192" y="792" class="st6" width="78" height="13"/>
	<rect x="1341" y="792" class="st6" width="78" height="13"/>
	<rect x="1490" y="792" class="st6" width="78" height="13"/>
	<rect x="1639" y="792" class="st6" width="78" height="13"/>
	<rect x="1788" y="792" class="st6" width="78" height="13"/>
</g>
<g id="tom">
	<circle class="st7" cx="364" cy="704" r="88"/>
	<rect x="386" y="697" transform="matrix(0.9876 0.1568 -0.1568 0.9876 116.4966 -56.9111)" class="st8" width="66" height="26"/>
	<circle class="st9" cx="452" cy="696" r="8"/>
	<circle class="st10" cx="419" cy="664" r="19"/>
	<circle class="st11" cx="427" cy="667" r="10"/>
	<circle class="st12" cx="309" cy="645" r="36"/>
</g>
<g id="jerry">
	<circle class="st13" cx="836.5" cy="734.5" r="57.5"/>
	<circle class="st14" cx="879" cy="747" r="19"/>
	<circle class="st15" cx="889" cy="728" r="9"/>
	<circle class="st16" cx="855" cy="705" r="18"/>
	<circle class="st17" cx="861" cy="706" r="9"/>
	<circle class="st18" cx="791.5" cy="709.5" r="21.5"/>
</g>
<g id="block">
	<rect x="1101" y="763" class="st19" width="20" height="29"/>
	<rect x="1345" y="763" class="st19" width="20" height="29"/>
</g>
</svg>
